<svg width="325" height="321" viewBox="0 0 325 321" fill="none" xmlns="http://www.w3.org/2000/svg">
<path d="M178.519 45.9223C175.991 45.9223 173.975 45.6503 172.471 45.1063C171.287 44.6583 170.183 43.9543 169.159 42.9943C168.135 42.0343 167.175 41.1863 166.279 40.4503L165.991 39.7303L166.903 36.0823C167.127 36.1463 167.351 36.3703 167.575 36.7543C167.831 37.1383 168.023 37.3783 168.151 37.4743C168.983 38.1783 169.815 38.9303 170.647 39.7303C171.479 40.5303 172.407 41.1223 173.431 41.5063C173.815 41.6343 174.391 41.7623 175.159 41.8903C175.959 42.0183 177.079 42.0823 178.519 42.0823C179.575 42.0823 180.439 41.9863 181.111 41.7943C181.783 41.5703 182.407 41.2183 182.983 40.7383C183.463 40.3543 183.863 39.8423 184.183 39.2023C184.535 38.5303 184.711 37.9383 184.711 37.4263C184.711 37.0103 184.679 36.6103 184.615 36.2263C184.551 35.8423 184.279 35.3623 183.799 34.7863C183.351 34.1783 182.503 33.4103 181.255 32.4823C180.423 31.8423 179.495 31.3303 178.471 30.9463C177.447 30.5303 176.375 30.0823 175.255 29.6023C174.167 29.0903 173.079 28.4023 171.991 27.5383C170.903 26.6743 169.879 25.4583 168.919 23.8903C168.215 22.6743 167.863 21.5223 167.863 20.4343C167.863 18.9623 168.167 17.7943 168.775 16.9303C169.383 16.0343 170.359 15.3303 171.703 14.8183C172.823 14.4343 173.895 14.1463 174.919 13.9543C175.975 13.7303 176.999 13.6183 177.991 13.6183C179.367 13.6183 180.647 13.8103 181.831 14.1943C183.047 14.5783 184.311 15.2023 185.623 16.0663L184.087 19.2823C183.095 18.6423 182.119 18.1783 181.159 17.8903C180.199 17.6023 179.143 17.4583 177.991 17.4583C176.231 17.4583 174.471 17.7783 172.711 18.4183C171.751 18.7703 171.175 19.0423 170.983 19.2343C170.823 19.4263 170.743 19.8263 170.743 20.4343C170.743 20.5623 170.775 20.7223 170.839 20.9143C170.903 21.0743 171.095 21.4103 171.415 21.9223C172.119 23.0743 172.871 23.9383 173.671 24.5143C174.503 25.0903 175.399 25.5703 176.359 25.9543C177.319 26.3383 178.343 26.7863 179.431 27.2983C180.551 27.7783 181.735 28.4983 182.983 29.4583C184.327 30.4823 185.319 31.5063 185.959 32.5303C186.631 33.5543 187.063 34.4983 187.255 35.3623C187.479 36.1943 187.591 36.8823 187.591 37.4263C187.591 38.5143 187.303 39.6823 186.727 40.9303C186.183 42.1463 185.543 43.0743 184.807 43.7143C183.783 44.5463 182.823 45.1223 181.927 45.4423C181.063 45.7623 179.927 45.9223 178.519 45.9223Z" fill="#004632"/>
<path d="M215.835 57.764C215.078 57.5043 214.441 56.8964 213.923 55.9406C213.406 54.9847 213.062 53.8178 212.892 52.44L215.526 51.568L215.662 51.6148C215.738 52.1821 215.91 52.715 216.179 53.2132C216.489 53.6916 216.795 53.9828 217.097 54.0867C217.339 54.1698 217.562 54.1617 217.765 54.0623C218.418 53.5419 219.071 52.9709 219.724 52.3493C220.387 51.6975 221.035 51.0911 221.668 50.53C222.769 49.5886 223.561 48.7102 224.044 47.8948C224.568 47.0596 225.043 46.0215 225.469 44.7806C226.352 42.208 226.386 40.0882 225.571 38.4213C225.481 38.2889 225.327 37.9485 225.11 37.4001C224.922 36.8621 224.39 36.4424 223.512 36.1411C223.451 36.1203 223.019 36.3948 222.214 36.9644C221.45 37.5141 220.472 38.2441 219.28 39.1544C218.129 40.0447 216.921 41.0003 215.657 42.0212C214.434 43.0223 213.322 43.9433 212.323 44.7845C211.833 45.2254 211.354 45.636 210.885 46.0163C210.447 46.4071 210.028 46.7879 209.63 47.1587C209.447 47.2988 209.253 47.4691 209.049 47.6697C208.925 47.9317 208.786 48.1885 208.632 48.4401C208.478 48.6917 208.324 48.9433 208.17 49.1949C207.903 49.6783 207.671 50.1063 207.475 50.479C207.29 50.8214 207.11 51.1487 206.935 51.4608C205.75 53.8283 204.707 55.0435 203.806 55.1063C202.895 55.1993 202.392 54.2486 202.299 52.2542C202.275 51.5355 202.412 50.8891 202.711 50.3149C203.009 49.7408 203.521 49.0876 204.246 48.3553C205.012 47.6032 206.027 46.6155 207.293 45.3922C207.746 44.5664 208.193 43.7558 208.636 42.9603C209.088 42.1345 209.551 41.3291 210.023 40.544C210.681 39.4165 211.246 38.4601 211.719 37.675C212.232 36.8701 212.689 36.1303 213.09 35.4559C213.531 34.7616 213.983 34.037 214.445 33.2822C214.917 32.4971 215.487 31.5762 216.154 30.5196C216.627 29.7345 217.069 28.939 217.481 28.1331C217.924 27.3376 218.381 26.5473 218.853 25.7622C218.713 25.68 218.551 25.6077 218.37 25.5453C218.218 25.4934 218.037 25.4311 217.825 25.3583C217.25 25.1609 216.649 24.9886 216.023 24.8413C215.438 24.6741 214.857 24.4918 214.282 24.2944L214.192 24.2633L215.438 20.6313L215.529 20.6625C216.074 20.8495 216.639 21.0266 217.225 21.1938C217.851 21.341 218.466 21.5186 219.072 21.7264C219.738 21.955 220.373 22.2238 220.977 22.5328C221.592 22.8115 221.91 23.4114 221.933 24.3325C221.995 25.2337 221.76 26.1171 221.226 26.9826C220.692 27.8481 220.188 28.724 219.715 29.6103C219.241 30.4966 218.758 31.3626 218.265 32.2082C217.514 33.507 216.872 34.5891 216.338 35.4546C215.804 36.3201 215.316 37.1 214.875 37.7943C214.434 38.4887 213.951 39.2534 213.428 40.0887C216.761 37.3761 219.39 35.3858 221.314 34.1178C223.238 32.8498 224.472 32.3599 225.015 32.6481C225.821 33.0601 226.434 33.5412 226.854 34.0914C227.285 34.6114 227.589 35.1049 227.767 35.572C227.975 36.0495 228.124 36.405 228.213 36.6386C228.709 37.7562 228.935 39.1193 228.89 40.7279C228.845 42.3365 228.537 43.9732 227.966 45.6378C227.363 47.3932 226.692 48.8546 225.953 50.0219C225.224 51.1589 224.315 52.183 223.224 53.0941C222.897 53.3543 222.448 53.7753 221.876 54.3571C221.345 54.9191 220.799 55.4758 220.237 56.0274C219.676 56.579 219.171 56.964 218.724 57.1827C218.063 57.531 217.545 57.7591 217.17 57.867C216.825 57.9854 216.38 57.951 215.835 57.764Z" fill="#004632"/>
<path d="M242.231 76.6403C241.625 76.1686 241.09 75.6309 240.627 75.0274C240.145 74.449 239.834 73.9634 239.693 73.5704C239.494 72.8883 239.343 72.0407 239.24 71.0275C239.156 69.989 239.162 69.1218 239.257 68.4258L239.211 68.3289C239.304 67.7929 239.493 67.2106 239.78 66.582C240.092 65.9731 240.458 65.346 240.879 64.7006C240.523 64.5854 240.202 64.4773 239.915 64.3761C239.649 64.2497 239.465 64.1472 239.364 64.0686L239.288 64.0096L241.647 60.9793L241.723 61.0383C241.798 61.0973 241.992 61.1871 242.304 61.3079C242.66 61.4231 243.029 61.5482 243.411 61.683C244.629 60.4822 245.949 59.36 247.369 58.3165C248.79 57.2729 250.165 56.4174 251.496 55.7499C252.871 55.0768 254.011 54.7067 254.914 54.6396C255.254 54.6201 255.589 54.6581 255.921 54.7536C256.252 54.8492 256.659 55.0037 257.141 55.2171C257.629 55.4755 258.05 55.7423 258.404 56.0175C258.959 56.4499 259.368 57.0717 259.628 57.8829C259.909 58.6688 260.095 59.5235 260.187 60.4469C260.299 61.345 260.368 62.1688 260.393 62.9181C260.485 64.2064 260.211 65.0272 259.571 65.3806C259.189 65.6106 258.774 65.7536 258.325 65.8096C257.921 65.86 257.606 65.8992 257.382 65.9272C255.178 66.3614 253.034 66.5375 250.949 66.4554C248.883 66.348 246.733 66.1143 244.5 65.7543C244.359 65.7262 244.018 65.6433 243.477 65.5056C243.103 65.9854 242.834 66.3838 242.668 66.7009C242.502 67.018 242.374 67.3646 242.284 67.7406C242.181 67.822 242.166 68.257 242.242 69.0457C242.343 69.854 242.498 70.6441 242.708 71.416L242.835 71.8791C242.941 72.0027 243.164 72.2371 243.504 72.5824C243.843 72.9277 244.215 73.2576 244.619 73.5721L245.263 74.0733L249.81 73.2329L249.897 76.403L244.559 77.4789L244.597 77.5083C243.954 77.6569 243.165 77.3675 242.231 76.6403ZM246.307 62.4165C247.435 62.6863 248.513 62.9168 249.54 63.1081C250.612 63.2937 251.762 63.3782 252.992 63.3618C254.241 63.3202 255.675 63.1186 257.294 62.7571L257.391 62.7108C257.358 62.0765 257.226 61.3861 256.996 60.6394C256.792 59.9124 256.475 59.3819 256.045 59.0478C255.919 58.9495 255.745 58.8344 255.523 58.7024C255.321 58.5451 255.185 58.4595 255.115 58.4454C254.728 58.2657 254.54 58.0383 254.551 57.7632C254.582 57.4629 254.669 57.2469 254.813 57.115C254.094 57.2046 253.253 57.5032 252.29 58.0108C251.328 58.5185 250.324 59.1566 249.28 59.9253C248.261 60.7136 247.27 61.544 246.307 62.4165Z" fill="#004632"/>
<path d="M261.115 100.06C260.993 99.8727 260.892 99.6898 260.814 99.5116C260.727 99.3776 260.635 99.2081 260.539 99.0031C260.209 98.2634 260.847 97.3684 262.455 96.3183C262.615 96.2133 262.79 96.0995 262.977 95.977C263.182 95.8813 263.338 95.7984 263.445 95.7284C264.738 95.0747 266.017 94.4875 267.283 93.9667C268.565 93.4727 269.759 92.9602 270.865 92.429C272.737 91.55 274.399 90.8465 275.85 90.3186C277.329 89.7731 278.785 89.2807 280.218 88.8414C281.651 88.402 283.217 87.9329 284.917 87.4339C285.46 87.2703 285.94 87.1283 286.359 87.0079C286.777 86.8876 287.146 86.78 287.467 86.6854C286.248 85.9907 285.482 85.4022 285.167 84.92L285.114 84.8396L288.369 82.7131L288.422 82.7934C288.684 83.1953 289.434 83.6993 290.671 84.3054C291.024 84.4951 291.329 84.6399 291.585 84.74C291.842 84.84 292.032 84.926 292.155 84.9982C292.984 85.5651 293.607 85.9037 294.023 86.0141C294.484 86.1337 294.736 86.1982 294.78 86.2075C294.709 86.2157 294.429 86.2841 293.94 86.4127C293.495 86.5506 292.87 86.9397 292.065 87.5802C291.591 87.9663 290.877 88.3369 289.924 88.6919C288.998 89.0295 288.09 89.3361 287.2 89.6119C286.337 89.8701 285.731 90.0553 285.384 90.1675C283.489 90.7179 281.802 91.2081 280.325 91.6382C278.892 92.0775 277.512 92.5396 276.185 93.0243C274.875 93.5358 273.427 94.1569 271.841 94.8877C270.557 95.4971 269.296 96.0534 268.057 96.5567C266.819 97.06 265.647 97.5772 264.542 98.1083L264.501 98.1346C265.001 98.8404 265.516 99.3067 266.046 99.5335C266.603 99.7429 267.179 99.8636 267.773 99.8957C268.395 99.9104 269.046 100.001 269.728 100.167C270.437 100.315 271.17 100.677 271.928 101.252L271.98 101.333L269.399 104.051L269.346 103.971C269.064 103.773 268.569 103.6 267.86 103.451C267.196 103.312 266.434 103.141 265.575 102.937C264.743 102.717 263.92 102.394 263.108 101.969C262.322 101.527 261.658 100.891 261.115 100.06Z" fill="#004632"/>
<path d="M276.579 140.389C276.304 139.303 276.818 138.595 278.121 138.265C278.648 138.131 279.075 138.122 279.401 138.238C279.766 138.376 279.98 138.504 280.043 138.62C280.439 138.751 280.746 138.855 280.963 138.932C281.22 139.032 281.398 139.086 281.499 139.093C282.19 139.215 282.874 139.306 283.549 139.366C284.256 139.418 284.9 139.486 285.482 139.57C286.468 139.683 287.384 139.715 288.23 139.666C289.076 139.617 289.933 139.483 290.802 139.263C291.763 139.019 292.62 138.687 293.371 138.265C294.131 137.875 294.886 137.337 295.637 136.652C296.248 136.068 296.732 135.566 297.087 135.146C297.482 134.749 297.553 134.054 297.302 133.061C297.216 132.72 297.122 132.414 297.02 132.142C296.918 131.871 296.828 131.712 296.751 131.666L296.739 131.619C296.364 130.922 296.165 130.527 296.142 130.434C295.73 130.241 295.318 130.114 294.906 130.053C294.534 130.015 294.045 130.04 293.44 130.127C292.843 130.246 292.001 130.442 290.915 130.717L290.279 128.204C291.086 128 292.02 127.78 293.083 127.544C294.153 127.339 295.243 127.277 296.353 127.359C297.464 127.441 298.427 127.858 299.244 128.608C299.548 128.894 299.903 129.448 300.309 130.27C300.519 130.579 300.679 130.885 300.789 131.188C300.899 131.49 300.993 131.796 301.071 132.107C301.33 133.13 301.36 133.965 301.16 134.609C300.96 135.254 300.586 135.861 300.037 136.429C299.495 137.028 298.822 137.694 298.017 138.426C297.189 139.197 296.201 139.859 295.054 140.414C293.915 140.999 292.71 141.453 291.438 141.775C290.383 142.042 289.254 142.213 288.052 142.286C286.857 142.391 285.747 142.375 284.722 142.238C284.318 142.208 283.915 142.178 283.511 142.149C283.107 142.119 282.715 142.07 282.335 142.001C282.817 142.473 283.273 142.902 283.701 143.289C284.129 143.676 284.424 143.931 284.588 144.055L284.6 144.101C285.557 144.882 286.501 145.485 287.434 145.909C288.398 146.325 289.633 146.705 291.14 147.05C292.46 147.31 293.438 147.458 294.075 147.495C294.719 147.563 295.289 147.534 295.786 147.408C296.251 147.29 296.743 147.083 297.262 146.787C297.781 146.49 298.451 146.007 299.272 145.337C299.713 144.994 300.039 144.78 300.248 144.694C300.496 144.631 300.752 144.467 301.015 144.203C300.821 144.219 300.669 144.142 300.56 143.971C300.451 143.801 300.601 143.482 301.011 143.015L304.134 144.007C304.227 143.851 304.27 143.89 304.263 144.123C304.294 144.379 304.102 144.791 303.684 145.359C303.445 145.716 303.085 146.055 302.605 146.375C302.132 146.725 301.741 147.006 301.431 147.216L301.443 147.263C299.647 148.642 297.973 149.528 296.422 149.921C294.84 150.322 292.729 150.262 290.088 149.742C288.131 149.314 286.508 148.834 285.218 148.302C283.928 147.77 282.8 147.099 281.836 146.287L281.824 146.24L281.777 146.252L281.789 146.298C281.532 146.066 281.147 145.718 280.633 145.254C280.12 144.79 279.575 144.268 278.999 143.687C278.423 143.107 277.912 142.527 277.468 141.946C276.993 141.373 276.697 140.854 276.579 140.389Z" fill="#004632"/>
<path d="M276.703 180.257C276.766 179.491 276.924 178.75 277.176 178.032C277.396 177.312 277.633 176.786 277.885 176.453C278.347 175.914 278.974 175.323 279.766 174.683C280.589 174.044 281.318 173.575 281.953 173.274L282.009 173.183C282.509 172.967 283.1 172.808 283.783 172.704C284.463 172.631 285.188 172.595 285.959 172.595C285.861 172.234 285.775 171.905 285.704 171.61C285.664 171.318 285.649 171.108 285.659 170.981L285.667 170.885L289.494 171.202L289.486 171.298C289.478 171.393 289.509 171.605 289.578 171.932C289.677 172.293 289.774 172.67 289.87 173.063C291.542 173.427 293.203 173.918 294.853 174.536C296.504 175.154 297.972 175.838 299.259 176.587C300.575 177.37 301.508 178.122 302.058 178.842C302.26 179.115 302.412 179.417 302.513 179.746C302.614 180.076 302.707 180.501 302.793 181.022C302.844 181.572 302.85 182.07 302.813 182.517C302.755 183.218 302.458 183.9 301.921 184.562C301.417 185.227 300.803 185.85 300.081 186.432C299.39 187.017 298.738 187.525 298.124 187.956C297.096 188.738 296.259 188.957 295.613 188.615C295.212 188.421 294.865 188.151 294.572 187.806C294.309 187.495 294.104 187.254 293.958 187.081C292.39 185.474 291.069 183.775 289.998 181.984C288.958 180.196 287.977 178.269 287.057 176.202C287.004 176.069 286.887 175.738 286.706 175.21C286.1 175.159 285.619 175.152 285.263 175.186C284.907 175.221 284.547 175.304 284.183 175.434C284.058 175.391 283.686 175.618 283.067 176.112C282.445 176.639 281.869 177.201 281.338 177.799L281.019 178.158C280.974 178.315 280.9 178.63 280.796 179.103C280.693 179.576 280.62 180.068 280.578 180.578L280.51 181.391L283.701 184.738L281.095 186.545L277.274 182.664L277.27 182.712C276.794 182.255 276.605 181.437 276.703 180.257ZM290.84 175.889C291.231 176.981 291.627 178.009 292.029 178.974C292.46 179.973 293.019 180.983 293.705 182.003C294.423 183.025 295.376 184.116 296.564 185.274L296.656 185.33C297.169 184.955 297.675 184.467 298.174 183.866C298.671 183.297 298.942 182.742 298.987 182.2C299 182.04 299.001 181.831 298.99 181.574C299.011 181.319 299.009 181.158 298.982 181.091C298.921 180.669 299.008 180.387 299.245 180.246C299.513 180.108 299.742 180.063 299.93 180.11C299.462 179.558 298.752 179.017 297.801 178.489C296.849 177.961 295.766 177.469 294.551 177.016C293.334 176.594 292.097 176.218 290.84 175.889Z" fill="#004632"/>
<path d="M233.551 248.449C234.159 248.356 235.152 248.553 236.531 249.039C237.912 249.571 239.882 250.407 242.443 251.546C244.244 252.378 245.998 253.166 247.705 253.911C249.413 254.701 251.088 255.503 252.73 256.318C251.867 254.61 250.981 252.903 250.072 251.197C249.166 249.536 248.312 247.793 247.512 245.97C247.062 244.946 246.658 243.944 246.301 242.962C245.921 242.004 245.554 241.057 245.198 240.12C245.073 239.831 244.959 239.553 244.858 239.285C244.756 239.018 244.642 238.717 244.515 238.382C244.464 238.249 244.415 238.16 244.368 238.117L246.225 235.39C246.5 235.469 246.766 235.606 247.023 235.799C247.282 236.037 247.483 236.244 247.627 236.419C248.516 237.107 249.528 237.756 250.663 238.366C251.821 238.997 253.024 239.604 254.271 240.187C256.56 241.338 258.896 242.509 261.278 243.702C263.66 244.894 265.989 246.168 268.264 247.523C269.332 248.158 270.398 248.748 271.463 249.293C272.529 249.883 273.652 250.482 274.832 251.09L273.36 254.106C272.227 253.542 271.105 252.965 269.994 252.377C268.882 251.789 267.746 251.157 266.586 250.48C264.45 249.21 262.202 247.966 259.842 246.75C257.46 245.558 255.043 244.356 252.593 243.144C252.108 242.915 251.599 242.664 251.067 242.392C250.513 242.143 249.969 241.859 249.435 241.542C249.662 242.099 249.877 242.645 250.08 243.18C250.284 243.715 250.498 244.238 250.723 244.75C251.799 247.219 252.984 249.593 254.278 251.872C255.551 254.175 256.715 256.573 257.769 259.065C258.792 259.703 259.816 260.362 260.84 261.045C261.889 261.749 262.927 262.487 263.955 263.26L261.995 265.956C259.775 264.304 257.574 262.844 255.393 261.576C253.214 260.352 250.947 259.2 248.592 258.12C246.261 257.062 243.78 255.93 241.148 254.725C240.272 254.354 239.499 254.012 238.83 253.7C238.138 253.412 237.528 253.154 236.997 252.927C237.291 253.458 237.608 254.011 237.949 254.586C238.292 255.206 238.693 255.88 239.154 256.608C240.784 259.326 242.469 262.031 244.211 264.722C245.931 267.436 247.617 270.141 249.269 272.835C249.729 273.564 250.165 274.248 250.576 274.887C250.99 275.572 251.415 276.268 251.852 276.975L248.897 278.626C248.436 277.897 247.999 277.191 247.586 276.506C247.175 275.866 246.762 275.204 246.349 274.519C244.676 271.848 242.967 269.144 241.224 266.408C239.503 263.694 237.829 260.977 236.199 258.259C235.591 257.265 234.994 256.237 234.407 255.174C233.821 254.156 233.291 253.125 232.818 252.08C232.343 250.99 232.138 250.15 232.204 249.558C232.27 248.967 232.719 248.597 233.551 248.449ZM247.358 236.498L247.396 236.599C247.394 236.553 247.382 236.52 247.358 236.498Z" fill="#004632"/>
<path d="M225.259 290.126L228.428 293.159L228.386 293.182C227.906 293.842 227.47 294.515 227.077 295.201C226.699 295.914 226.088 296.5 225.244 296.957L225.16 297.002L222.921 292.865L223.005 292.82C223.596 292.5 224 292.136 224.215 291.728C224.403 291.335 224.709 290.824 225.132 290.195L225.259 290.126ZM215.264 263.389C215.435 262.896 215.702 262.515 216.065 262.246C216.413 261.948 216.82 261.892 217.284 262.077C217.735 262.306 218.22 262.899 218.737 263.856C219.271 264.841 219.661 265.831 219.908 266.825C220.126 267.834 220.317 268.623 220.478 269.19C220.867 270.581 221.198 271.73 221.471 272.638C221.73 273.588 221.959 274.447 222.155 275.214C222.352 275.981 222.557 276.798 222.772 277.664C222.986 278.531 223.235 279.596 223.52 280.861C223.537 280.961 223.561 281.039 223.592 281.095C223.609 281.195 223.627 281.295 223.644 281.394C224.377 280.597 225.11 280.001 225.841 279.605L227.692 283.024C227.185 283.299 226.751 283.606 226.39 283.947C226.001 284.303 225.496 284.85 224.875 285.586C224.324 286.248 223.973 286.674 223.822 286.865C223.67 287.056 223.393 287.116 222.99 287.043C222.484 286.916 222.115 286.334 221.881 285.296C221.662 284.286 221.351 282.872 220.949 281.052C220.647 279.687 220.395 278.55 220.194 277.64C219.964 276.746 219.751 275.915 219.554 275.148C219.373 274.409 219.153 273.6 218.896 272.721C218.625 271.885 218.312 270.836 217.956 269.573C217.84 269.09 217.724 268.607 217.609 268.124C217.493 267.64 217.37 267.179 217.242 266.739C216.872 267.267 216.516 267.751 216.172 268.192C215.828 268.632 215.548 269.057 215.332 269.464L212.639 267.211C213.153 266.278 213.643 265.503 214.11 264.886C214.592 264.298 214.977 263.799 215.264 263.389Z" fill="#004632"/>
<path d="M179.638 273.698C180.585 273.54 181.319 274.148 181.84 275.521C182.024 276.041 182.174 276.649 182.29 277.343C182.474 278.448 182.585 279.695 182.622 281.084C182.633 282.509 182.596 283.943 182.512 285.384C182.402 286.863 182.271 288.215 182.119 289.441C181.94 290.703 181.753 291.724 181.559 292.502C181.538 292.571 181.517 292.639 181.496 292.708C181.475 292.776 181.459 292.876 181.449 293.008L183.674 292.636L184.156 295.524L180.7 296.101C180.453 297.148 180.208 298.211 179.966 299.289C179.73 300.399 179.527 301.325 179.359 302.067C179.165 302.846 179.068 303.235 179.068 303.235L176.274 303.701C176.19 303.196 176.274 302.241 176.526 300.837C176.784 299.463 177.083 298.051 177.425 296.599C176.41 296.736 175.397 296.889 174.387 297.057C173.377 297.226 172.43 297.384 171.546 297.531L171.451 297.547L170.969 294.659L171.064 294.643C172.137 294.464 173.289 294.272 174.52 294.066C175.725 293.898 176.943 293.711 178.174 293.505C178.316 292.995 178.437 292.553 178.537 292.18C178.61 291.843 178.665 291.59 178.702 291.422C178.933 290.475 179.157 289.383 179.372 288.147C179.556 286.916 179.703 285.659 179.813 284.375C179.892 283.097 179.931 281.873 179.931 280.706C179.936 279.569 179.87 278.591 179.733 277.77C179.26 278.044 178.739 278.423 178.171 278.907C177.608 279.422 177.114 279.862 176.688 280.225C176.267 280.619 176.038 280.706 176.001 280.485L173.634 280.88C173.555 280.407 173.71 279.781 174.099 279.002C174.494 278.255 175.03 277.484 175.709 276.69C176.355 275.901 177.037 275.219 177.752 274.646C178.441 274.109 179.07 273.793 179.638 273.698Z" fill="#004632"/>
<path d="M129.219 270.009C130.008 270.14 130.737 270.635 131.405 271.493C132.073 272.35 132.604 273.445 132.998 274.776L130.544 276.069L130.402 276.046C130.234 275.499 129.976 275.001 129.629 274.554C129.245 274.133 128.895 273.896 128.579 273.844C128.327 273.802 128.109 273.846 127.924 273.978C127.367 274.598 126.817 275.269 126.275 275.99C125.727 276.742 125.188 277.447 124.657 278.104C123.725 279.214 123.089 280.211 122.746 281.095C122.367 282.005 122.07 283.107 121.854 284.401C121.406 287.084 121.722 289.18 122.8 290.69C122.91 290.806 123.118 291.116 123.423 291.622C123.696 292.121 124.291 292.448 125.206 292.6C125.269 292.611 125.651 292.269 126.351 291.575C127.014 290.907 127.858 290.026 128.884 288.932C129.873 287.864 130.907 286.723 131.986 285.508C133.028 284.319 133.972 283.227 134.82 282.233C135.23 281.718 135.635 281.234 136.035 280.782C136.404 280.324 136.753 279.88 137.085 279.448C137.243 279.28 137.406 279.08 137.574 278.849C137.653 278.57 137.748 278.294 137.859 278.02C137.969 277.747 138.08 277.473 138.19 277.199C138.374 276.679 138.532 276.218 138.664 275.819C138.79 275.45 138.914 275.098 139.035 274.761C139.814 272.231 140.643 270.861 141.522 270.65C142.405 270.409 143.058 271.264 143.478 273.215C143.62 273.92 143.591 274.581 143.391 275.196C143.191 275.812 142.793 276.54 142.199 277.382C141.567 278.25 140.728 279.391 139.681 280.806C139.37 281.695 139.062 282.568 138.757 283.426C138.447 284.315 138.123 285.185 137.786 286.037C137.323 287.258 136.923 288.294 136.586 289.146C136.212 290.025 135.883 290.83 135.599 291.561C135.278 292.318 134.952 293.107 134.62 293.928C134.283 294.78 133.873 295.782 133.388 296.934C133.052 297.786 132.746 298.644 132.473 299.507C132.167 300.364 131.846 301.219 131.509 302.071C131.662 302.129 131.833 302.174 132.022 302.205C132.18 302.232 132.369 302.263 132.59 302.3C133.19 302.4 133.811 302.471 134.453 302.514C135.058 302.582 135.66 302.666 136.26 302.766L136.354 302.782L135.722 306.57L135.628 306.554C135.059 306.459 134.473 306.378 133.868 306.309C133.226 306.267 132.59 306.193 131.958 306.088C131.264 305.972 130.593 305.811 129.946 305.606C129.294 305.432 128.881 304.893 128.708 303.988C128.497 303.109 128.584 302.199 128.969 301.258C129.353 300.316 129.705 299.369 130.026 298.417C130.348 297.465 130.682 296.531 131.029 295.616C131.556 294.211 132.011 293.038 132.395 292.097C132.779 291.155 133.132 290.306 133.453 289.548C133.774 288.791 134.124 287.957 134.503 287.047C131.662 290.271 129.396 292.667 127.707 294.234C126.018 295.802 124.882 296.488 124.298 296.293C123.435 296.02 122.751 295.646 122.246 295.172C121.736 294.73 121.355 294.294 121.103 293.862C120.819 293.425 120.613 293.099 120.487 292.884C119.814 291.863 119.367 290.555 119.146 288.961C118.926 287.367 118.96 285.702 119.25 283.966C119.556 282.136 119.977 280.584 120.514 279.311C121.045 278.069 121.774 276.909 122.7 275.831C122.979 275.521 123.353 275.032 123.821 274.364C124.252 273.722 124.7 273.083 125.163 272.446C125.626 271.81 126.06 271.347 126.465 271.058C127.06 270.605 127.533 270.295 127.886 270.127C128.207 269.953 128.651 269.914 129.219 270.009Z" fill="#004632"/>
<path d="M82.3807 245.056C84.4162 246.555 85.8782 247.969 86.7666 249.299C87.4543 250.362 87.9258 251.584 88.181 252.964C88.4363 254.344 88.7064 255.596 88.9914 256.72L88.7964 257.471L85.8987 259.867C85.7563 259.683 85.7088 259.37 85.7561 258.928C85.7777 258.467 85.7654 258.16 85.7193 258.006C85.4669 256.946 85.2429 255.847 85.0473 254.71C84.8518 253.572 84.4556 252.545 83.8588 251.629C83.6255 251.298 83.2377 250.853 82.6952 250.295C82.1269 249.717 81.263 249.002 80.1035 248.148C79.2533 247.521 78.5006 247.086 77.8457 246.843C77.1718 246.624 76.4606 246.538 75.7121 246.583C75.0979 246.607 74.4722 246.782 73.835 247.108C73.1531 247.44 72.6603 247.813 72.3567 248.225C72.11 248.56 71.8986 248.901 71.7224 249.248C71.5462 249.595 71.4806 250.143 71.5255 250.891C71.5257 251.647 71.7531 252.768 72.2077 254.255C72.4981 255.264 72.9417 256.226 73.5385 257.143C74.1164 258.085 74.7139 259.082 75.331 260.132C75.9035 261.19 76.3716 262.389 76.7353 263.73C77.099 265.071 77.2024 266.657 77.0456 268.489C76.8913 269.885 76.4916 271.022 75.8464 271.898C74.9735 273.083 74.0361 273.843 73.0342 274.178C72.0133 274.539 70.81 274.527 69.4242 274.143C68.2946 273.788 67.2607 273.384 66.3223 272.931C65.3392 272.485 64.4482 271.968 63.6495 271.38C62.5415 270.564 61.6247 269.65 60.8991 268.639C60.1477 267.609 59.4999 266.357 58.9558 264.883L62.0997 263.204C62.519 264.308 63.0297 265.26 63.6319 266.062C64.2341 266.863 64.999 267.605 65.9266 268.288C67.3438 269.332 68.9507 270.118 70.7473 270.646C71.7291 270.932 72.3542 271.055 72.6226 271.014C72.8653 270.954 73.1669 270.679 73.5275 270.19C73.6034 270.087 73.6725 269.939 73.7348 269.746C73.7782 269.58 73.8228 269.195 73.8688 268.593C73.985 267.248 73.8919 266.107 73.5893 265.168C73.2609 264.211 72.8241 263.293 72.2788 262.415C71.7336 261.536 71.1747 260.568 70.6023 259.511C69.9851 258.46 69.4587 257.178 69.0231 255.665C68.5481 254.044 68.3566 252.631 68.4485 251.427C68.5146 250.204 68.7266 249.188 69.0843 248.378C69.3973 247.575 69.7152 246.955 70.0377 246.517C70.6829 245.641 71.6075 244.871 72.8113 244.208C73.9704 243.551 75.0361 243.184 76.0082 243.105C77.3261 243.042 78.4407 243.148 79.3519 243.421C80.2374 243.676 81.247 244.221 82.3807 245.056Z" fill="#004632"/>
<path d="M65.9019 224.623C63.9547 225.971 62.0753 227.135 60.2637 228.116C58.4258 229.116 56.5859 230.253 54.7439 231.527C53.4018 232.456 52.0871 233.424 50.7997 234.432C49.486 235.457 48.1632 236.47 46.8313 237.47C46.5681 237.652 46.3141 237.847 46.0691 238.055C45.806 238.237 45.5429 238.419 45.2797 238.602C44.385 239.221 43.4812 239.827 42.5684 240.419C41.6372 240.986 40.7507 241.56 39.9086 242.143L37.9967 239.38C38.8914 238.761 39.8043 238.168 40.7354 237.602C41.6219 237.027 42.4994 236.439 43.3678 235.839C43.6309 235.656 43.8941 235.474 44.1572 235.292C44.3758 235.102 44.5904 234.934 44.8009 234.789C45.5985 234.198 46.4 233.585 47.2057 232.949C48.0113 232.314 48.8261 231.692 49.6499 231.083C48.3045 229.251 46.9286 227.46 45.5224 225.709C44.098 223.931 42.7212 222.082 41.392 220.161C41.046 219.661 40.6303 218.976 40.1447 218.106C39.6329 217.254 39.1484 216.441 38.6911 215.668C38.2701 215.959 37.8359 216.26 37.3886 216.569C36.9149 216.897 36.4716 217.184 36.0587 217.431C34.5224 218.416 32.9679 219.375 31.3951 220.308C29.8041 221.214 28.2982 222.159 26.8772 223.142L24.9653 220.379C26.4652 219.341 28.0238 218.36 29.6411 217.436C31.2138 216.503 32.742 215.562 34.2257 214.613C34.7702 214.275 35.3319 213.906 35.9108 213.506C36.4898 213.105 37.1081 212.677 37.766 212.222C39.5817 210.966 41.3923 209.674 43.1979 208.346C44.9772 207.037 46.7787 205.732 48.6025 204.432C48.8474 204.223 49.1359 203.965 49.4679 203.658C49.7816 203.324 50.1622 203.002 50.6095 202.692L52.5214 205.455C52.2846 205.619 52.0225 205.859 51.735 206.175C51.403 206.482 51.0225 206.804 50.5933 207.14C49.059 208.241 47.5338 209.354 46.0177 210.481C44.4833 211.582 42.9622 212.673 41.4541 213.756C41.9478 214.582 42.4505 215.421 42.9624 216.273C43.4479 217.143 43.8454 217.802 44.155 218.249C45.4296 220.091 46.7791 221.901 48.2035 223.678C49.6279 225.456 51.0128 227.26 52.3583 229.092L52.8319 228.764C54.7529 227.435 56.6323 226.271 58.4702 225.271C60.3081 224.272 62.148 223.135 63.99 221.86L65.9019 224.623Z" fill="#004632"/>
<path d="M48.8881 184.102C49.6864 186.935 49.9718 188.833 49.7441 189.795C49.6508 190.054 49.5512 190.232 49.4454 190.328C49.3001 190.402 49.045 190.441 48.6801 190.444C48.2845 190.456 47.6843 190.508 46.8796 190.602C45.789 190.743 44.5684 190.954 43.2179 191.235C41.828 191.493 40.4775 191.774 39.1665 192.077C38.8498 192.133 38.5375 192.204 38.2295 192.291C37.882 192.356 37.5389 192.436 37.2 192.531C35.9372 192.887 34.6917 193.304 33.4636 193.783C32.196 194.24 30.9525 194.724 29.733 195.233C28.6281 195.678 27.5256 196.072 26.4254 196.415C25.2945 196.767 24.203 197.141 23.151 197.537L22.7983 196.639L20.442 197.303C19.8432 195.177 19.205 193.03 18.5272 190.86C17.8495 188.691 17.0817 186.497 16.2239 184.278C16.1806 184.124 16.1372 183.97 16.0938 183.816C16.0196 183.671 15.9608 183.521 15.9174 183.367C15.6657 182.474 15.482 181.645 15.3661 180.88C15.2502 180.114 14.9934 179.439 14.5955 178.853L18.2916 177.811C18.7329 178.551 19.0114 179.304 19.1273 180.069C19.2432 180.835 19.4052 181.587 19.6135 182.326C19.6482 182.449 19.6983 182.568 19.7638 182.683C19.7899 182.775 19.8159 182.867 19.8419 182.96C20.508 184.734 21.1475 186.532 21.7606 188.354C22.3429 190.184 22.9097 192.019 23.4612 193.859C24.3063 193.554 25.16 193.28 26.0225 193.037C26.8454 192.772 27.6443 192.481 28.4191 192.163C28.9253 191.954 29.447 191.74 29.984 191.522C30.5211 191.305 31.0625 191.102 31.6082 190.915C31.5254 190.739 31.4579 190.559 31.4058 190.374C31.3538 190.189 31.3017 190.004 31.2496 189.819C30.9199 188.649 30.643 187.43 30.4191 186.164C30.1644 184.905 29.8852 183.737 29.5814 182.659C29.5033 182.382 29.4296 182.12 29.3601 181.874C29.2599 181.636 29.1838 181.425 29.1317 181.24C28.8705 180.549 28.6219 180.021 28.3859 179.655C28.1412 179.259 28.0323 178.99 28.0592 178.849C28.0466 178.687 28.2535 178.595 28.68 178.575L30.8767 176.46C31.1531 176.615 31.4353 176.967 31.7234 177.518C31.972 178.046 32.2987 178.852 32.7035 179.935C32.8124 180.203 32.9213 180.472 33.0302 180.74C33.1083 181.017 33.1908 181.31 33.2775 181.618C33.5986 182.758 33.8865 183.957 34.1412 185.215C34.3652 186.481 34.6333 187.669 34.9457 188.778L35.193 189.656C35.3692 189.573 35.5496 189.505 35.7344 189.453C35.9192 189.401 36.1041 189.349 36.2889 189.297C36.6585 189.193 37.0324 189.104 37.4107 189.031C37.7495 188.936 38.0927 188.855 38.4402 188.791C39.6895 188.505 40.9587 188.231 42.2475 187.967C43.5056 187.713 44.6646 187.519 45.7244 187.387C45.6597 187.039 45.5864 186.661 45.5044 186.252C45.3916 185.852 45.2874 185.482 45.192 185.143C44.975 184.373 44.7123 183.5 44.4038 182.523C44.0866 181.515 43.7848 180.503 43.4985 179.486C43.1813 178.479 42.8902 177.563 42.625 176.74C42.3513 175.887 42.1536 175.244 42.0321 174.813L41.9071 172.953L43.4361 169.53C43.9598 169.383 44.3676 169.65 44.6596 170.332C44.9208 171.024 45.277 172.17 45.7282 173.772C45.841 174.172 46.03 174.784 46.2951 175.607C46.5602 176.43 46.8514 177.345 47.1685 178.353C47.4549 179.369 47.7567 180.381 48.0739 181.389C48.391 182.397 48.6624 183.301 48.8881 184.102Z" fill="#004632"/>
<path d="M47.8726 150.94C47.8529 151.291 47.5395 151.45 46.9325 151.416C46.2296 151.377 45.5426 151.338 44.8717 151.3C44.2025 151.231 43.5325 151.177 42.8616 151.139C42.5101 151.12 42.0309 151.093 41.4238 151.059C40.8168 151.025 40.3366 151.014 39.9834 151.026C38.8917 151.061 37.8027 151.048 36.7164 150.987C35.632 150.894 34.5448 150.849 33.4549 150.852C32.0437 150.869 30.6148 150.917 29.1681 150.996C27.7214 151.075 26.2632 151.073 24.7935 150.991C24.5379 150.976 24.2672 150.945 23.9815 150.897C23.6957 150.849 23.4241 150.834 23.1668 150.851C21.887 150.812 20.8167 150.751 19.9558 150.671C19.0648 150.557 18.1774 150.379 17.2935 150.137C17.0415 150.059 16.8525 150 16.7265 149.961C16.5704 149.888 16.4763 149.851 16.4444 149.849L16.6057 146.974C17.2767 147.011 17.7843 147.104 18.1286 147.251C18.4409 147.397 18.4861 147.448 18.2643 147.403C19.1499 147.613 20.1199 147.748 21.1742 147.807C22.1984 147.832 22.9963 147.893 23.5678 147.989C23.7896 148.034 24.0124 148.062 24.236 148.075C24.4597 148.087 24.6993 148.101 24.9549 148.115C26.2648 148.189 27.6272 148.185 29.0419 148.104C30.4247 148.022 31.8696 147.975 33.3767 147.963C34.5624 147.965 35.6975 148.013 36.782 148.106C37.8363 148.165 38.8605 148.191 39.8545 148.182C40.1758 148.168 40.672 148.18 41.3429 148.218C42.0156 148.223 42.5757 148.239 43.0229 148.264L44.7003 148.358C44.6705 147.747 44.6407 147.137 44.6108 146.526C44.549 145.914 44.5289 145.416 44.5504 145.033C44.6096 143.978 44.7158 142.942 44.869 141.925C45.0223 140.908 45.1267 139.905 45.1823 138.914C45.245 137.796 45.2918 136.677 45.3226 135.557C45.3233 134.403 45.3568 133.235 45.4232 132.053L48.5862 132.231C48.5234 133.349 48.4757 134.484 48.4431 135.636C48.4425 136.79 48.4099 137.942 48.3453 139.092C48.2879 140.114 48.1826 141.134 48.0294 142.151C47.8761 143.168 47.7708 144.188 47.7135 145.21C47.6901 145.625 47.7058 146.203 47.7604 146.943C47.815 147.684 47.8536 148.423 47.8763 149.161C47.9309 149.902 47.9297 150.494 47.8726 150.94Z" fill="#004632"/>
<path d="M57.5637 114.69C55.2378 114.123 52.94 113.36 50.67 112.401C48.4001 111.442 46.2076 110.462 44.0924 109.463C42.469 108.698 40.7819 108.132 39.0312 107.764C37.2926 107.367 35.5814 106.86 33.8976 106.243C33.1446 105.971 32.4246 105.661 31.7374 105.312C31.0624 104.933 30.384 104.605 29.7024 104.327L30.0645 103.438L28.5349 102.867C29.5993 99.9146 30.7536 96.8258 31.9979 93.601C33.2422 90.3761 34.4618 87.2967 35.6567 84.3627L39.2131 85.8111C38.1751 88.3598 37.1124 91.054 36.025 93.8935C34.92 96.6914 33.8749 99.4273 32.8895 102.101C33.2627 102.288 33.6211 102.468 33.9647 102.643C34.3203 102.788 34.6611 102.926 34.9871 103.059C36.0189 103.41 37.0776 103.738 38.1631 104.042C39.2311 104.304 40.3227 104.593 41.4379 104.909C41.6562 104.203 41.8834 103.518 42.1193 102.854C42.3552 102.19 42.4973 101.799 42.5455 101.68C43.0536 100.263 43.6395 98.7396 44.3034 97.1096C44.9793 95.45 45.5323 93.9649 45.9624 92.6543L49.6093 93.8805C49.143 95.28 48.5719 96.8095 47.8959 98.4692C47.22 100.129 46.6401 101.637 46.1562 102.995C46.1079 103.114 45.9658 103.505 45.7299 104.169C45.5061 104.804 45.279 105.489 45.0486 106.224L45.1819 106.278C47.386 107.314 49.5786 108.293 51.7596 109.216C53.911 110.127 56.0843 110.857 58.2795 111.405L57.5637 114.69Z" fill="#004632"/>
<path d="M81.4538 79.179C79.5183 81.3972 78.0856 82.6741 77.1559 83.0095C76.888 83.0731 76.6849 83.0869 76.5463 83.051C76.4047 82.9699 76.2329 82.7775 76.0308 82.4737C75.8046 82.1489 75.4321 81.6753 74.9135 81.0529C74.1989 80.217 73.3548 79.3105 72.3811 78.3335C71.4044 77.3114 70.4307 76.3343 69.4601 75.4025C69.24 75.168 69.0094 74.9455 68.7683 74.7351C68.5241 74.4796 68.2694 74.2361 68.0042 74.0047C67.0156 73.1421 65.985 72.3277 64.9123 71.5616C63.8365 70.7503 62.7517 69.9736 61.6579 69.2315C60.6816 68.5495 59.749 67.8419 58.8599 67.1086C57.9468 66.3543 57.0367 65.6451 56.1297 64.981L56.6885 64.1946L54.844 62.5851C56.2957 60.9214 57.7443 59.2126 59.1899 57.4586C60.6354 55.7046 62.0522 53.8619 63.4403 51.9303C63.5455 51.8098 63.6507 51.6892 63.7559 51.5687C63.837 51.4271 63.9301 51.296 64.0353 51.1754C64.6455 50.4762 65.2392 49.8688 65.8164 49.3533C66.3937 48.8377 66.8189 48.2531 67.0919 47.5995L69.9853 50.1242C69.607 50.8984 69.1293 51.5432 68.552 52.0588C67.9748 52.5743 67.4336 53.1215 66.9287 53.7001C66.8446 53.7966 66.7725 53.9035 66.7124 54.021C66.6493 54.0934 66.5862 54.1657 66.5231 54.238C65.4023 55.7658 64.2469 57.2846 63.0569 58.7944C61.8428 60.2831 60.6166 61.7614 59.3784 63.2291C60.0956 63.77 60.7918 64.335 61.4669 64.924C62.1389 65.468 62.8199 65.9773 63.51 66.452C63.9619 66.7614 64.426 67.0814 64.902 67.4119C65.3781 67.7423 65.8437 68.0849 66.2987 68.4395C66.4009 68.2738 66.515 68.1186 66.6413 67.9739C66.7675 67.8292 66.8937 67.6846 67.02 67.5399C67.8195 66.6237 68.6882 65.7254 69.6262 64.8451C70.5401 63.9438 71.3652 63.0711 72.1016 62.2272C72.291 62.0102 72.4698 61.8053 72.6381 61.6124C72.7823 61.3985 72.9175 61.2192 73.0438 61.0745C73.4794 60.4779 73.7858 59.9807 73.9629 59.5831C74.161 59.1614 74.3262 58.9234 74.4586 58.869C74.5879 58.7695 74.7777 58.8927 75.028 59.2385L78.0001 59.9208C78.0217 60.2368 77.8808 60.666 77.5775 61.2083C77.2711 61.7054 76.7754 62.4195 76.0903 63.3506C75.9251 63.5887 75.7598 63.8267 75.5946 64.0648C75.4052 64.2818 75.2054 64.5108 74.995 64.7519C74.2165 65.6441 73.3704 66.5408 72.4565 67.4421C71.5185 68.3224 70.6707 69.1966 69.9133 70.0646L69.3137 70.7518C69.4794 70.8539 69.6346 70.9681 69.7793 71.0943C69.924 71.2205 70.0686 71.3468 70.2133 71.473C70.5026 71.7255 70.7814 71.99 71.0497 72.2666C71.315 72.498 71.5697 72.7415 71.8139 72.997C72.7362 73.8868 73.6602 74.7992 74.5856 75.7341C75.4869 76.648 76.2829 77.5124 76.9733 78.3272C77.2289 78.083 77.5055 77.8147 77.8031 77.5223C78.0766 77.2089 78.329 76.9195 78.5605 76.6543C79.0865 76.0515 79.674 75.3538 80.3231 74.5612C80.9933 73.7445 81.6756 72.9383 82.3698 72.1426C83.04 71.3259 83.6471 70.5815 84.191 69.9095C84.756 69.2133 85.1858 68.6965 85.4803 68.3589L86.9689 67.237L90.6707 66.645C91.0806 67.0026 91.0798 67.4903 90.6682 68.108C90.2326 68.7046 89.4677 69.6298 88.3737 70.8836C88.1002 71.1971 87.6915 71.6898 87.1475 72.3619C86.6036 73.0339 85.9965 73.7783 85.3263 74.595C84.632 75.3907 83.9498 76.1969 83.2796 77.0136C82.6095 77.8303 82.0009 78.5521 81.4538 79.179Z" fill="#004632"/>
<path d="M112.628 57.4624C110.077 58.932 108.307 59.6744 107.319 59.6898C107.045 59.663 106.848 59.6101 106.729 59.5311C106.621 59.4084 106.521 59.1706 106.429 58.8177C106.32 58.4371 106.122 57.8682 105.833 57.1111C105.429 56.0885 104.925 54.957 104.321 53.7168C103.729 52.4329 103.126 51.1927 102.51 49.9961C102.378 49.7029 102.232 49.4176 102.073 49.1403C101.925 48.8193 101.763 48.5064 101.587 48.2013C100.932 47.0645 100.222 45.9596 99.4559 44.8866C98.7018 43.77 97.928 42.6832 97.1345 41.6262C96.4325 40.6641 95.7802 39.692 95.1774 38.7098C94.5586 37.6998 93.9281 36.7335 93.2859 35.811L94.0698 35.2486L92.8478 33.1274C94.761 32.0252 96.686 30.8793 98.6228 29.6897C100.56 28.5002 102.498 27.2173 104.438 25.8412C104.577 25.7613 104.715 25.6814 104.854 25.6016C104.977 25.494 105.107 25.4002 105.246 25.3204C106.05 24.8571 106.809 24.4754 107.522 24.1752C108.236 23.8751 108.827 23.4602 109.298 22.9306L111.215 26.258C110.606 26.8674 109.944 27.3222 109.231 27.6224C108.518 27.9226 107.828 28.2644 107.163 28.6477C107.052 28.7116 106.949 28.7894 106.854 28.881C106.771 28.9289 106.688 28.9768 106.604 29.0248C105.048 30.1058 103.462 31.1672 101.847 32.2088C100.215 33.2227 98.5751 34.2227 96.9274 35.2088C97.4301 35.9532 97.9051 36.7137 98.3524 37.49C98.8114 38.2227 99.2902 38.9256 99.7887 39.5986C100.116 40.038 100.451 40.4913 100.794 40.9585C101.137 41.4256 101.466 41.9008 101.781 42.3839C101.931 42.2603 102.09 42.1506 102.256 42.0548C102.423 41.9589 102.589 41.8631 102.755 41.7673C103.809 41.1603 104.922 40.5927 106.095 40.0647C107.252 39.509 108.316 38.9515 109.287 38.3925C109.536 38.2487 109.772 38.1129 109.994 37.9851C110.199 37.8296 110.386 37.7039 110.552 37.6081C111.158 37.1852 111.609 36.8145 111.905 36.496C112.23 36.1614 112.463 35.9899 112.606 35.9815C112.761 35.9294 112.9 36.1075 113.025 36.5159L115.614 38.1262C115.532 38.4321 115.26 38.7923 114.797 39.2067C114.345 39.5774 113.645 40.0919 112.694 40.7501C112.461 40.9216 112.227 41.0931 111.994 41.2646C111.744 41.4083 111.481 41.5601 111.203 41.7198C110.177 42.3108 109.086 42.8842 107.929 43.44C106.756 43.968 105.67 44.5196 104.672 45.0946L103.882 45.5499C104.005 45.7003 104.115 45.8586 104.211 46.025C104.307 46.1914 104.403 46.3577 104.498 46.5241C104.69 46.8569 104.868 47.1976 105.032 47.5463C105.208 47.8513 105.369 48.1643 105.517 48.4853C106.101 49.6263 106.679 50.7893 107.25 51.974C107.806 53.1311 108.278 54.207 108.667 55.2019C108.988 55.054 109.336 54.89 109.713 54.7101C110.073 54.5024 110.406 54.3107 110.711 54.135C111.404 53.7357 112.186 53.2666 113.058 52.7277C113.957 52.1728 114.864 51.6318 115.779 51.1047C116.678 50.5498 117.494 50.0429 118.227 49.5839C118.987 49.1089 119.561 48.7596 119.949 48.536L121.722 47.9582L125.415 48.6002C125.687 49.0716 125.528 49.5325 124.938 49.9831C124.332 50.406 123.308 51.0327 121.866 51.8633C121.506 52.071 120.959 52.4043 120.227 52.8633C119.494 53.3224 118.678 53.8293 117.779 54.3842C116.864 54.9113 115.957 55.4523 115.058 56.0071C114.159 56.562 113.349 57.0471 112.628 57.4624Z" fill="#004632"/>
<path d="M207.126 136.436L209.184 133.04C209.184 133.04 210.996 130.036 210.996 126.002C210.996 116.23 201.672 116.488 201.672 116.488L181.358 110.958L170.276 100L155.694 103.97L150.912 102.668L147.278 106.262L126.284 111.978C126.284 111.978 118.204 111.756 118.204 120.224C118.204 123.72 119.776 126.324 119.776 126.324L122.478 130.784L120.104 133.128L108.384 136.32C108.384 136.32 99.06 136.062 99.06 145.834C99.0786 148.111 99.6112 150.354 100.618 152.396L97 155.974L98.898 156.726C98.94 156.828 98.956 156.942 99.038 157.024C102.708 160.702 102.406 165.642 101.882 168.31L99.664 170.532L116.466 178.61L139.542 216.7C143.24 222.512 151.09 218.876 151.09 218.876L210.388 190.364L208.17 188.142C207.646 185.474 207.344 180.534 211.014 176.854C211.096 176.772 211.112 176.658 211.154 176.558L213.052 175.804L202.026 164.904L214.686 158.818L212.764 156.892C212.31 154.58 212.048 150.298 215.23 147.11C215.3 147.038 215.312 146.942 215.35 146.852L217 146.198L207.126 136.436ZM195.756 118.766L193.256 122.722L186.788 116.326L195.756 118.766ZM171.352 110.288L180.638 120.214L147.06 132.348L139.13 120.036L171.352 110.288ZM124.488 134.104L147.402 171.926L103.748 154.61L124.488 134.104ZM114.938 138.238L112.248 140.898L111.172 139.248L114.938 138.238ZM106.444 140.306L108.948 144.16L103.522 149.524C103.096 148.34 102.872 147.092 102.86 145.834C102.86 142.182 104.672 140.792 106.444 140.306ZM103.308 170.052L103.338 169.936L153.632 191.95L103.732 168.162C103.778 167.892 103.814 167.594 103.852 167.294L142.918 183.654L103.988 165.422C103.996 164.589 103.938 163.756 103.816 162.932L139.974 177.822L103.33 160.8C103.095 160.012 102.78 159.25 102.39 158.526L152.156 179.776L153.288 181.644C155.622 185.312 159.856 184.634 161.99 183.998C164.94 185.454 170.228 188.822 168.874 193.784C168.16 196.408 166.59 197.68 164.076 197.68C161.53 197.68 158.988 196.348 158.962 196.33L103.308 170.052ZM153.4 196.37L149.468 197.998L146.128 192.872L153.4 196.37ZM138.172 207.132L122.714 181.614L138.078 189L145.344 200.184C142.414 201.436 139.14 204.294 138.172 207.132ZM206.238 182.764C206.116 183.588 206.058 184.421 206.066 185.254L167.136 203.486L206.202 187.126C206.24 187.424 206.274 187.724 206.322 187.994L156.422 211.784L206.716 189.77L206.746 189.886L151.092 216.16C151.066 216.178 148.528 217.51 145.978 217.51C143.462 217.51 141.894 216.236 141.18 213.614C139.344 206.88 149.784 203.062 149.94 203.004L159.09 199.1C160.072 199.518 167.078 202.268 170.512 196.87L172.678 193.298L207.666 178.358C207.275 179.082 206.959 179.844 206.724 180.632L170.08 197.654L206.238 182.764ZM206.306 174.442L176.656 186.73L184.884 173.148L198.418 166.642L206.306 174.442ZM211.092 152.228C210.986 152.942 210.936 153.664 210.942 154.386L177.206 170.186L211.062 156.008C211.096 156.266 211.124 156.528 211.166 156.76L167.918 177.376L211.506 158.298L211.532 158.398L163.298 181.172C163.276 181.186 161.074 182.342 158.866 182.342C156.684 182.342 155.326 181.236 154.708 178.964C153.116 173.128 162.164 169.82 162.3 169.77L212.328 148.41C211.991 149.038 211.718 149.699 211.514 150.382L179.754 165.134L211.092 152.228Z" fill="#004632"/>
</svg>
