<svg width="153" height="114" viewBox="0 0 153 114" fill="none" xmlns="http://www.w3.org/2000/svg">
<path d="M146.08 99.208C145.312 99.208 144.56 99.112 143.824 98.92C143.088 98.76 142.544 98.568 142.192 98.344C141.616 97.928 140.976 97.352 140.272 96.616C139.568 95.848 139.04 95.16 138.688 94.552L138.592 94.504C138.336 94.024 138.128 93.448 137.968 92.776C137.84 92.104 137.744 91.384 137.68 90.616C137.328 90.744 137.008 90.856 136.72 90.952C136.432 91.016 136.224 91.048 136.096 91.048H136V87.208H136.096C136.192 87.208 136.4 87.16 136.72 87.064C137.072 86.936 137.44 86.808 137.824 86.68C138.048 84.984 138.4 83.288 138.88 81.592C139.36 79.896 139.92 78.376 140.56 77.032C141.232 75.656 141.904 74.664 142.576 74.056C142.832 73.832 143.12 73.656 143.44 73.528C143.76 73.4 144.176 73.272 144.688 73.144C145.232 73.048 145.728 73 146.176 73C146.88 73 147.584 73.24 148.288 73.72C148.992 74.168 149.664 74.728 150.304 75.4C150.944 76.04 151.504 76.648 151.984 77.224C152.848 78.184 153.136 79 152.848 79.672C152.688 80.088 152.448 80.456 152.128 80.776C151.84 81.064 151.616 81.288 151.456 81.448C149.984 83.144 148.4 84.6 146.704 85.816C145.008 87 143.168 88.136 141.184 89.224C141.056 89.288 140.736 89.432 140.224 89.656C140.224 90.264 140.256 90.744 140.32 91.096C140.384 91.448 140.496 91.8 140.656 92.152C140.624 92.28 140.88 92.632 141.424 93.208C142 93.784 142.608 94.312 143.248 94.792L143.632 95.08C143.792 95.112 144.112 95.16 144.592 95.224C145.072 95.288 145.568 95.32 146.08 95.32H146.896L149.968 91.864L151.984 94.312L148.432 98.44H148.48C148.064 98.952 147.264 99.208 146.08 99.208ZM140.56 85.48C141.616 85 142.608 84.52 143.536 84.04C144.496 83.528 145.456 82.888 146.416 82.12C147.376 81.32 148.384 80.28 149.44 79L149.488 78.904C149.072 78.424 148.544 77.96 147.904 77.512C147.296 77.064 146.72 76.84 146.176 76.84C146.016 76.84 145.808 76.856 145.552 76.888C145.296 76.888 145.136 76.904 145.072 76.936C144.656 77.032 144.368 76.968 144.208 76.744C144.048 76.488 143.984 76.264 144.016 76.072C143.504 76.584 143.024 77.336 142.576 78.328C142.128 79.32 141.728 80.44 141.376 81.688C141.056 82.936 140.784 84.2 140.56 85.48Z" fill="#004632"/>
<path d="M130.107 89.6322C129.418 89.9723 128.701 90.2193 127.956 90.3731C127.226 90.5557 126.653 90.6245 126.238 90.5796C125.537 90.4617 124.708 90.2287 123.751 89.8807C122.78 89.5039 122.002 89.1209 121.417 88.7317L121.31 88.7312C120.868 88.4143 120.426 87.99 119.985 87.4583C119.572 86.9125 119.167 86.3095 118.77 85.6493C118.511 85.92 118.274 86.1621 118.058 86.3757C117.828 86.5607 117.656 86.6815 117.541 86.7382L117.455 86.7807L115.754 83.3379L115.84 83.2954C115.926 83.2529 116.092 83.1177 116.336 82.8899C116.595 82.6192 116.868 82.3415 117.156 82.0566C116.605 80.4369 116.17 78.7604 115.849 77.0272C115.528 75.294 115.357 73.6832 115.336 72.1948C115.329 70.6635 115.492 69.4764 115.825 68.6337C115.955 68.3195 116.136 68.0341 116.366 67.7776C116.596 67.5211 116.912 67.2221 117.315 66.8806C117.76 66.5536 118.183 66.2909 118.585 66.0924C119.216 65.7806 119.954 65.684 120.797 65.8025C121.627 65.8924 122.477 66.0968 123.349 66.4159C124.206 66.7062 124.978 67.0033 125.663 67.3071C126.863 67.7851 127.482 68.3892 127.522 69.1192C127.563 69.5631 127.51 69.9993 127.365 70.4279C127.235 70.8137 127.133 71.1137 127.06 71.3281C126.492 73.5006 125.717 75.5076 124.735 77.349C123.738 79.1617 122.592 80.9951 121.295 82.8493C121.209 82.9634 120.985 83.2342 120.626 83.6618C120.895 84.207 121.136 84.6231 121.349 84.9104C121.563 85.1976 121.819 85.4636 122.118 85.7083C122.146 85.8373 122.532 86.0395 123.275 86.315C124.046 86.5763 124.825 86.7804 125.612 86.9272L126.083 87.0154C126.241 86.9732 126.549 86.8745 127.008 86.7193C127.467 86.5641 127.926 86.3731 128.385 86.1463L129.116 85.7849L130.34 81.3257L133.231 82.6276L131.875 87.9019L131.918 87.8806C131.772 88.5239 131.168 89.1078 130.107 89.6322ZM119.077 79.769C119.811 78.8709 120.488 78.0012 121.108 77.1598C121.742 76.2756 122.319 75.2766 122.839 74.1628C123.346 73.0204 123.789 71.6415 124.169 70.0262L124.169 69.9188C123.584 69.6727 122.905 69.4906 122.133 69.3724C121.389 69.24 120.773 69.2943 120.286 69.5352C120.142 69.6061 119.963 69.7126 119.747 69.8547C119.518 69.968 119.382 70.0533 119.338 70.1103C119.008 70.3806 118.721 70.4508 118.479 70.3208C118.222 70.1622 118.065 69.9897 118.009 69.8034C117.777 70.4892 117.679 71.376 117.717 72.4638C117.755 73.5516 117.892 74.733 118.129 76.0078C118.395 77.2684 118.711 78.5221 119.077 79.769Z" fill="#004632"/>
<path d="M109.858 110.021C109.083 110.404 107.723 110.612 105.776 110.646C105.318 110.658 104.875 110.627 104.446 110.554C104.031 110.509 103.452 110.384 102.709 110.18L102.832 106.854L102.961 106.79C103.29 106.877 103.641 106.936 104.012 106.967C104.384 106.997 104.785 107.013 105.214 107.015C106.603 107.008 107.584 106.862 108.157 106.579C108.588 106.366 108.804 106.081 108.805 105.723C108.807 105.365 108.702 104.864 108.491 104.219C108.308 103.56 108.112 102.693 107.902 101.619C107.651 100.315 107.371 99.0616 107.062 97.858C106.738 96.6257 106.379 95.3932 105.985 94.1606C105.505 92.6843 105.054 91.3369 104.63 90.1184C104.207 88.8999 103.783 87.6814 103.36 86.463C102.965 85.2303 102.556 83.8617 102.134 82.357C101.993 81.927 101.86 81.4755 101.733 81.0027C101.606 80.5298 101.508 80.0785 101.439 79.6489L98.4265 81.137L96.9171 78.0815L97.0031 78.039C97.6343 77.7272 98.2511 77.4225 98.8536 77.1249C99.4561 76.8272 100.066 76.5082 100.683 76.1677C100.585 75.6091 100.466 75.0432 100.326 74.4701C100.214 73.8828 100.088 73.3026 99.9481 72.7295C99.7514 71.9701 99.619 71.2324 99.5509 70.5165C99.4827 69.8007 99.3284 69.1631 99.0878 68.6038C99.0173 68.3888 98.9466 68.2096 98.8757 68.0661C98.8194 67.8798 98.7557 67.7149 98.6849 67.5715C98.5432 67.2846 98.3651 67.1048 98.1508 67.0322C98.0651 67.0032 97.9365 66.9596 97.765 66.9016C97.5794 66.8148 97.4513 66.6639 97.3808 66.4489C97.2398 66.0189 97.327 65.726 97.6426 65.5701C97.9869 65.4 98.4669 65.2878 99.0825 65.2335C99.8129 65.1225 100.336 65.0607 100.65 65.0479C100.994 65.0209 101.373 64.9941 101.789 64.9675C103.206 64.8741 104.652 64.695 106.127 64.4302C107.589 64.1367 108.979 63.6639 110.299 63.012L110.385 62.9695L112.086 66.4123L111.999 66.4548C110.536 67.1776 108.988 67.6925 107.355 67.9995C105.722 68.3065 104.09 68.5062 102.458 68.5985C102.386 68.5982 102.301 68.6049 102.2 68.6187C102.1 68.6326 102 68.6464 101.9 68.6602C102.168 69.4916 102.328 70.2508 102.382 70.938C102.451 71.5823 102.52 72.0835 102.59 72.4417C102.688 72.8571 102.786 73.2726 102.884 73.6881C102.983 74.1036 103.066 74.5262 103.136 74.9559C104.413 74.2894 105.682 73.6443 106.945 73.0207C108.222 72.3542 109.491 71.7092 110.754 71.0856L110.84 71.043L112.328 74.0555L112.242 74.098C109.459 75.4728 106.668 76.9048 103.871 78.394C104.025 78.9958 104.158 79.5904 104.27 80.1777C104.41 80.7508 104.558 81.3025 104.713 81.8327C105.164 83.3232 105.586 84.6848 105.981 85.9175C106.39 87.1072 106.8 88.297 107.209 89.4868C107.618 90.6766 108.056 92.0311 108.52 93.5503C108.958 94.869 109.338 96.1803 109.661 97.4841C110.012 98.7738 110.321 100.085 110.586 101.417C110.698 101.933 110.86 102.585 111.071 103.373C111.296 104.19 111.463 105.035 111.574 105.908C111.684 106.782 111.616 107.583 111.369 108.311C111.165 109.055 110.661 109.625 109.858 110.021Z" fill="#004632"/>
<path d="M82.044 107.528C81.82 107.528 81.612 107.512 81.42 107.48C81.26 107.48 81.068 107.464 80.844 107.432C80.044 107.304 79.644 106.28 79.644 104.36C79.644 104.168 79.644 103.96 79.644 103.736C79.676 103.512 79.692 103.336 79.692 103.208C79.852 101.768 80.06 100.376 80.316 99.0319C80.604 97.6879 80.828 96.4079 80.988 95.1919C81.276 93.1439 81.596 91.3679 81.948 89.8639C82.3 88.3279 82.684 86.8399 83.1 85.3999C83.516 83.9599 83.98 82.3919 84.492 80.6959C84.652 80.1519 84.796 79.6719 84.924 79.2559C85.052 78.8399 85.164 78.4719 85.26 78.1519C84.012 78.7919 83.1 79.1119 82.524 79.1119H82.428V75.2239H82.524C83.004 75.2239 83.836 74.8719 85.02 74.1679C85.372 73.9759 85.66 73.7999 85.884 73.6399C86.108 73.4799 86.284 73.3679 86.412 73.3039C87.34 72.9199 87.964 72.5839 88.284 72.2959C88.636 71.9759 88.828 71.7999 88.86 71.7679C88.828 71.8319 88.732 72.1039 88.572 72.5839C88.444 73.0319 88.428 73.7679 88.524 74.7919C88.588 75.3999 88.508 76.1999 88.284 77.1919C88.06 78.1519 87.82 79.0799 87.564 79.9759C87.308 80.8399 87.132 81.4479 87.036 81.7999C86.46 83.6879 85.948 85.3679 85.5 86.8399C85.084 88.2799 84.716 89.6879 84.396 91.0639C84.108 92.4399 83.836 93.9919 83.58 95.7199C83.388 97.1279 83.164 98.4879 82.908 99.7999C82.652 101.112 82.444 102.376 82.284 103.592V103.64C83.148 103.608 83.82 103.432 84.3 103.112C84.78 102.76 85.196 102.344 85.548 101.864C85.9 101.352 86.332 100.856 86.844 100.376C87.356 99.8639 88.06 99.4479 88.956 99.1279H89.052L89.916 102.776H89.82C89.5 102.904 89.084 103.224 88.572 103.736C88.092 104.216 87.532 104.76 86.892 105.368C86.252 105.944 85.532 106.456 84.732 106.904C83.932 107.32 83.036 107.528 82.044 107.528Z" fill="#004632"/>
<path d="M65.6796 97.8C64.9116 97.8 64.1596 97.704 63.4236 97.512C62.6876 97.352 62.1436 97.16 61.7916 96.936C61.2156 96.52 60.5756 95.944 59.8716 95.208C59.1676 94.44 58.6396 93.752 58.2876 93.144L58.1916 93.096C57.9356 92.616 57.7276 92.04 57.5676 91.368C57.4396 90.696 57.3436 89.976 57.2796 89.208C56.9276 89.336 56.6076 89.448 56.3196 89.544C56.0316 89.608 55.8236 89.64 55.6956 89.64H55.5996V85.8H55.6956C55.7916 85.8 55.9996 85.752 56.3196 85.656C56.6716 85.528 57.0396 85.4 57.4236 85.272C57.6476 83.576 57.9996 81.88 58.4796 80.184C58.9596 78.488 59.5196 76.968 60.1596 75.624C60.8316 74.248 61.5036 73.256 62.1756 72.648C62.4316 72.424 62.7196 72.248 63.0396 72.12C63.3596 71.992 63.7756 71.864 64.2876 71.736C64.8316 71.64 65.3276 71.592 65.7756 71.592C66.4796 71.592 67.1836 71.832 67.8876 72.312C68.5916 72.76 69.2636 73.32 69.9036 73.992C70.5436 74.632 71.1036 75.24 71.5836 75.816C72.4476 76.776 72.7356 77.592 72.4476 78.264C72.2876 78.68 72.0476 79.048 71.7276 79.368C71.4396 79.656 71.2156 79.88 71.0556 80.04C69.5836 81.736 67.9996 83.192 66.3036 84.408C64.6076 85.592 62.7676 86.728 60.7836 87.816C60.6556 87.88 60.3356 88.024 59.8236 88.248C59.8236 88.856 59.8556 89.336 59.9196 89.688C59.9836 90.04 60.0956 90.392 60.2556 90.744C60.2236 90.872 60.4796 91.224 61.0236 91.8C61.5996 92.376 62.2076 92.904 62.8476 93.384L63.2316 93.672C63.3916 93.704 63.7116 93.752 64.1916 93.816C64.6716 93.88 65.1676 93.912 65.6796 93.912H66.4956L69.5676 90.456L71.5836 92.904L68.0316 97.032H68.0796C67.6636 97.544 66.8636 97.8 65.6796 97.8ZM60.1596 84.072C61.2156 83.592 62.2076 83.112 63.1356 82.632C64.0956 82.12 65.0556 81.48 66.0156 80.712C66.9756 79.912 67.9836 78.872 69.0396 77.592L69.0876 77.496C68.6716 77.016 68.1436 76.552 67.5036 76.104C66.8956 75.656 66.3196 75.432 65.7756 75.432C65.6156 75.432 65.4076 75.448 65.1516 75.48C64.8956 75.48 64.7356 75.496 64.6716 75.528C64.2556 75.624 63.9676 75.56 63.8076 75.336C63.6476 75.08 63.5836 74.856 63.6156 74.664C63.1036 75.176 62.6236 75.928 62.1756 76.92C61.7276 77.912 61.3276 79.032 60.9756 80.28C60.6556 81.528 60.3836 82.792 60.1596 84.072Z" fill="#004632"/>
<path d="M51.5771 89.6379C50.9368 90.1175 50.0759 90.3027 48.9944 90.1934C47.9128 90.084 46.7546 89.7123 45.5197 89.0781L46.2795 86.4096L46.3947 86.3233C46.9066 86.5795 47.4441 86.7366 48.0073 86.7945C48.5769 86.8076 48.9897 86.7182 49.2458 86.5263C49.4507 86.3728 49.5692 86.1841 49.6013 85.9601C49.5377 85.128 49.4325 84.2672 49.2858 83.3775C49.1198 82.4622 48.9826 81.5854 48.8742 80.7469C48.715 79.3068 48.4339 78.1579 48.0311 77.3001C47.6348 76.3975 47.0433 75.4212 46.2566 74.3712C44.6257 72.1944 42.8919 70.9744 41.0552 70.7111C40.8952 70.711 40.5272 70.6468 39.9513 70.5185C39.401 70.371 38.7545 70.5755 38.0118 71.132C37.9606 71.1703 37.9443 71.6823 37.963 72.6679C37.9882 73.6087 38.042 74.828 38.1244 76.3256C38.2133 77.7785 38.3246 79.3145 38.4582 80.9338C38.5982 82.5082 38.7351 83.9451 38.8688 85.2444C38.9581 85.8972 39.0282 86.5245 39.0791 87.1261C39.1556 87.7085 39.2353 88.2686 39.3183 88.8062C39.331 89.0366 39.3628 89.2926 39.4139 89.5742C39.561 89.8239 39.6952 90.0832 39.8167 90.352C39.9382 90.6209 40.0596 90.8898 40.1811 91.1586C40.4305 91.6516 40.6543 92.0837 40.8525 92.455C41.0315 92.8006 41.2009 93.1335 41.3608 93.4536C42.6524 95.7647 43.0709 97.3105 42.6161 98.091C42.1805 98.8972 41.1118 98.7783 39.4099 97.7342C38.8021 97.3499 38.3447 96.8729 38.0378 96.3032C37.7309 95.7334 37.4784 94.9429 37.2805 93.9316C37.0891 92.8755 36.8433 91.4802 36.5434 89.7456C36.115 88.907 35.6962 88.0812 35.287 87.2682C34.8586 86.4296 34.4527 85.5942 34.0691 84.762C33.5064 83.5841 33.0333 82.5791 32.6498 81.7469C32.2726 80.8699 31.9178 80.0762 31.5853 79.3656C31.2593 78.6102 30.9141 77.8293 30.5497 77.0227C30.1661 76.1905 29.725 75.2015 29.2263 74.0556C28.8428 73.2234 28.4336 72.4104 27.9987 71.6166C27.5895 70.8036 27.1932 69.981 26.8096 69.1488C26.6623 69.2192 26.5119 69.3119 26.3582 69.427C26.2302 69.5229 26.0765 69.6381 25.8973 69.7724C25.4107 70.1369 24.9305 70.5367 24.4567 70.9717C23.9893 71.3618 23.5123 71.7392 23.0257 72.1038L22.9489 72.1613L20.6464 69.0882L20.7232 69.0306C21.1842 68.6853 21.6484 68.3175 22.1158 67.9273C22.5896 67.4923 23.0826 67.083 23.5948 66.6992C24.1582 66.2771 24.7376 65.903 25.3329 65.5769C25.9091 65.2252 26.5843 65.2991 27.3584 65.7987C28.139 66.2535 28.7371 66.945 29.1526 67.8732C29.5681 68.8014 30.0093 69.7104 30.4761 70.6002C30.9428 71.4901 31.3872 72.3767 31.8091 73.2601C32.4613 74.6108 32.9951 75.7503 33.4107 76.6785C33.8262 77.6067 34.197 78.4485 34.523 79.2038C34.849 79.9592 35.2102 80.7882 35.6066 81.6908C35.2375 77.409 35.0695 74.1161 35.1027 71.8121C35.1358 69.5081 35.4244 68.2123 35.9686 67.9245C36.7624 67.4897 37.5049 67.2533 38.1961 67.2152C38.8682 67.1516 39.4473 67.1775 39.9337 67.2929C40.4456 67.3892 40.8232 67.4661 41.0664 67.5239C42.2695 67.7421 43.5236 68.3219 44.8287 69.2633C46.1338 70.2048 47.3141 71.3797 48.3694 72.7883C49.4822 74.2736 50.3136 75.65 50.8633 76.9175C51.3939 78.1594 51.7293 79.4875 51.8694 80.902C51.9012 81.318 51.9969 81.9261 52.1565 82.7261C52.3225 83.4814 52.4757 84.2463 52.6161 85.0208C52.7566 85.7952 52.7914 86.4288 52.7208 86.9216C52.6372 87.664 52.5346 88.2207 52.4128 88.5919C52.3166 88.9438 52.038 89.2925 51.5771 89.6379Z" fill="#004632"/>
<path d="M29.3958 105.657C27.3726 107.173 25.5961 108.164 24.0663 108.63C22.8501 108.981 21.5445 109.08 20.1493 108.926C18.7542 108.771 17.4775 108.668 16.3191 108.617L15.6569 108.213L14.1994 104.747C14.417 104.664 14.7306 104.709 15.1401 104.882C15.5753 105.035 15.8728 105.112 16.0328 105.113C17.1208 105.177 18.2375 105.28 19.3831 105.421C20.5286 105.563 21.6262 105.48 22.676 105.173C23.0601 105.046 23.5978 104.803 24.2892 104.445C25.0061 104.067 25.9408 103.447 27.0933 102.584C27.9384 101.95 28.5723 101.355 28.995 100.799C29.3984 100.217 29.6868 99.5608 29.8599 98.8313C30.0138 98.2362 30.0269 97.5866 29.8993 96.8825C29.7781 96.1337 29.5639 95.5544 29.2569 95.1446C29.0075 94.8117 28.7421 94.5108 28.4606 94.2418C28.1791 93.9729 27.6736 93.7518 26.9441 93.5787C26.221 93.3607 25.0819 93.2546 23.5267 93.2602C22.4771 93.2469 21.4274 93.3936 20.3777 93.7002C19.3087 93.9813 18.1822 94.2656 16.998 94.553C15.8203 94.7956 14.5371 94.8974 13.1483 94.8583C11.7595 94.8192 10.2109 94.46 8.50241 93.7808C7.20988 93.2298 6.23743 92.5189 5.58506 91.6482C4.70245 90.4701 4.2454 89.3531 4.21392 88.2971C4.16325 87.2155 4.52222 86.0668 5.29082 84.8512C5.9569 83.8723 6.64213 82.9991 7.34651 82.2314C8.05731 81.419 8.80966 80.7153 9.60355 80.1205C10.7048 79.2955 11.8443 78.6816 13.0221 78.279C14.2255 77.8572 15.6112 77.5987 17.1792 77.5035L17.8783 80.9982C16.7007 81.0808 15.6414 81.2947 14.7004 81.6398C13.7594 81.985 12.828 82.5029 11.906 83.1937C10.4975 84.249 9.28087 85.5604 8.25609 87.1279C7.69887 87.9852 7.40099 88.5482 7.36246 88.817C7.34954 89.0666 7.52536 89.4347 7.88992 89.9213C7.96667 90.0237 8.08821 90.1326 8.25455 90.2479C8.40171 90.3375 8.75684 90.4913 9.31993 90.7092C10.5741 91.209 11.694 91.4496 12.6796 91.4309C13.6908 91.393 14.6957 91.2398 15.6942 90.9715C16.6927 90.7032 17.7809 90.4478 18.9586 90.2051C20.1427 89.9177 21.522 89.784 23.0964 89.804C24.786 89.8176 26.1939 90.0423 27.32 90.4781C28.4718 90.8946 29.3836 91.3911 30.0553 91.9674C30.7334 92.499 31.2356 92.9824 31.5618 93.4178C32.2142 94.2885 32.684 95.3959 32.9714 96.7401C33.2651 98.0394 33.3094 99.1658 33.1041 100.119C32.7835 101.399 32.3605 102.436 31.8354 103.229C31.3358 104.003 30.5226 104.812 29.3958 105.657Z" fill="#004632"/>
<path d="M102.063 20.218L103.092 18.52C103.092 18.52 103.998 17.018 103.998 15.001C103.998 10.115 99.336 10.244 99.336 10.244L89.179 7.479L83.638 2L76.347 3.985L73.956 3.334L72.139 5.131L61.642 7.989C61.642 7.989 57.602 7.878 57.602 12.112C57.602 13.86 58.388 15.162 58.388 15.162L59.739 17.392L58.552 18.564L52.692 20.16C52.692 20.16 48.03 20.031 48.03 24.917C48.0393 26.0554 48.3056 27.1769 48.809 28.198L47 29.987L47.949 30.363C47.97 30.414 47.978 30.471 48.019 30.512C49.854 32.351 49.703 34.821 49.441 36.155L48.332 37.266L56.733 41.305L68.271 60.35C70.12 63.256 74.045 61.438 74.045 61.438L103.694 47.182L102.585 46.071C102.323 44.737 102.172 42.267 104.007 40.427C104.048 40.386 104.056 40.329 104.077 40.279L105.026 39.902L99.513 34.452L105.843 31.409L104.882 30.446C104.655 29.29 104.524 27.149 106.115 25.555C106.15 25.519 106.156 25.471 106.175 25.426L107 25.099L102.063 20.218ZM96.378 11.383L95.128 13.361L91.894 10.163L96.378 11.383ZM84.176 7.144L88.819 12.107L72.03 18.174L68.065 12.018L84.176 7.144ZM60.744 19.052L72.201 37.963L50.374 29.305L60.744 19.052ZM55.969 21.119L54.624 22.449L54.086 21.624L55.969 21.119ZM51.722 22.153L52.974 24.08L50.261 26.762C50.0478 26.17 49.9359 25.5462 49.93 24.917C49.93 23.091 50.836 22.396 51.722 22.153ZM50.154 37.026L50.169 36.968L75.316 47.975L50.366 36.081C50.389 35.946 50.407 35.797 50.426 35.647L69.959 43.827L50.494 34.711C50.4978 34.2944 50.469 33.8781 50.408 33.466L68.487 40.911L50.165 32.4C50.0477 32.0059 49.8902 31.6249 49.695 31.263L74.578 41.888L75.144 42.822C76.311 44.656 78.428 44.317 79.495 43.999C80.97 44.727 83.614 46.411 82.937 48.892C82.58 50.204 81.795 50.84 80.538 50.84C79.265 50.84 77.994 50.174 77.981 50.165L50.154 37.026ZM75.2 50.185L73.234 50.999L71.564 48.436L75.2 50.185ZM67.586 55.566L59.857 42.807L67.539 46.5L71.172 52.092C69.707 52.718 68.07 54.147 67.586 55.566ZM101.619 43.382C101.558 43.7941 101.529 44.2104 101.533 44.627L82.068 53.743L101.601 45.563C101.62 45.712 101.637 45.862 101.661 45.997L76.711 57.892L101.858 46.885L101.873 46.943L74.046 60.08C74.033 60.089 72.764 60.755 71.489 60.755C70.231 60.755 69.447 60.118 69.09 58.807C68.172 55.44 73.392 53.531 73.47 53.502L78.045 51.55C78.536 51.759 82.039 53.134 83.756 50.435L84.839 48.649L102.333 41.179C102.137 41.5409 101.98 41.9219 101.862 42.316L83.54 50.827L101.619 43.382ZM101.653 39.221L86.828 45.365L90.942 38.574L97.709 35.321L101.653 39.221ZM104.046 28.114C103.993 28.4712 103.968 28.8319 103.971 29.193L87.103 37.093L104.031 30.004C104.048 30.133 104.062 30.264 104.083 30.38L82.459 40.688L104.253 31.149L104.266 31.199L80.149 42.586C80.138 42.593 79.037 43.171 77.933 43.171C76.842 43.171 76.163 42.618 75.854 41.482C75.058 38.564 79.582 36.91 79.65 36.885L104.664 26.205C104.496 26.5191 104.359 26.8495 104.257 27.191L88.377 34.567L104.046 28.114Z" fill="#004632"/>
</svg>
