<svg xmlns="http://www.w3.org/2000/svg" version="1.1" xmlns:xlink="http://www.w3.org/1999/xlink" xmlns:svgjs="http://svgjs.dev/svgjs" width="1000" height="1000"><style>
    #light-icon {
      display: inline;
    }
    #dark-icon {
      display: none;
    }

    @media (prefers-color-scheme: dark) {
      #light-icon {
        display: none;
      }
      #dark-icon {
        display: inline;
      }
    }
  </style><g id="light-icon"><svg xmlns="http://www.w3.org/2000/svg" version="1.1" xmlns:xlink="http://www.w3.org/1999/xlink" xmlns:svgjs="http://svgjs.dev/svgjs" width="1000" height="1000"><g><g transform="matrix(15.625,0,0,15.625,0,0)"><svg xmlns="http://www.w3.org/2000/svg" version="1.1" xmlns:xlink="http://www.w3.org/1999/xlink" xmlns:svgjs="http://svgjs.dev/svgjs" width="64" height="64"><svg width="64" height="64" viewBox="0 0 64 64" fill="none" xmlns="http://www.w3.org/2000/svg">
<path d="M57.063 20.218L58.092 18.52C58.092 18.52 58.998 17.018 58.998 15.001C58.998 10.115 54.336 10.244 54.336 10.244L44.179 7.479L38.638 2L31.347 3.985L28.956 3.334L27.139 5.131L16.642 7.989C16.642 7.989 12.602 7.878 12.602 12.112C12.602 13.86 13.388 15.162 13.388 15.162L14.739 17.392L13.552 18.564L7.692 20.16C7.692 20.16 3.03 20.031 3.03 24.917C3.03932 26.0554 3.30561 27.1769 3.809 28.198L2 29.987L2.949 30.363C2.97 30.414 2.978 30.471 3.019 30.512C4.854 32.351 4.703 34.821 4.441 36.155L3.332 37.266L11.733 41.305L23.271 60.35C25.12 63.256 29.045 61.438 29.045 61.438L58.694 47.182L57.585 46.071C57.323 44.737 57.172 42.267 59.007 40.427C59.048 40.386 59.056 40.329 59.077 40.279L60.026 39.902L54.513 34.452L60.843 31.409L59.882 30.446C59.655 29.29 59.524 27.149 61.115 25.555C61.15 25.519 61.156 25.471 61.175 25.426L62 25.099L57.063 20.218ZM51.378 11.383L50.128 13.361L46.894 10.163L51.378 11.383ZM39.176 7.144L43.819 12.107L27.03 18.174L23.065 12.018L39.176 7.144ZM15.744 19.052L27.201 37.963L5.374 29.305L15.744 19.052ZM10.969 21.119L9.624 22.449L9.086 21.624L10.969 21.119ZM6.722 22.153L7.974 24.08L5.261 26.762C5.04779 26.17 4.93589 25.5462 4.93 24.917C4.93 23.091 5.836 22.396 6.722 22.153ZM5.154 37.026L5.169 36.968L30.316 47.975L5.366 36.081C5.389 35.946 5.407 35.797 5.426 35.647L24.959 43.827L5.494 34.711C5.4978 34.2944 5.46904 33.8781 5.408 33.466L23.487 40.911L5.165 32.4C5.04771 32.0059 4.89021 31.6249 4.695 31.263L29.578 41.888L30.144 42.822C31.311 44.656 33.428 44.317 34.495 43.999C35.97 44.727 38.614 46.411 37.937 48.892C37.58 50.204 36.795 50.84 35.538 50.84C34.265 50.84 32.994 50.174 32.981 50.165L5.154 37.026ZM30.2 50.185L28.234 50.999L26.564 48.436L30.2 50.185ZM22.586 55.566L14.857 42.807L22.539 46.5L26.172 52.092C24.707 52.718 23.07 54.147 22.586 55.566ZM56.619 43.382C56.558 43.7941 56.5292 44.2104 56.533 44.627L37.068 53.743L56.601 45.563C56.62 45.712 56.637 45.862 56.661 45.997L31.711 57.892L56.858 46.885L56.873 46.943L29.046 60.08C29.033 60.089 27.764 60.755 26.489 60.755C25.231 60.755 24.447 60.118 24.09 58.807C23.172 55.44 28.392 53.531 28.47 53.502L33.045 51.55C33.536 51.759 37.039 53.134 38.756 50.435L39.839 48.649L57.333 41.179C57.1374 41.5409 56.9796 41.9219 56.862 42.316L38.54 50.827L56.619 43.382ZM56.653 39.221L41.828 45.365L45.942 38.574L52.709 35.321L56.653 39.221ZM59.046 28.114C58.9932 28.4712 58.9681 28.8319 58.971 29.193L42.103 37.093L59.031 30.004C59.048 30.133 59.062 30.264 59.083 30.38L37.459 40.688L59.253 31.149L59.266 31.199L35.149 42.586C35.138 42.593 34.037 43.171 32.933 43.171C31.842 43.171 31.163 42.618 30.854 41.482C30.058 38.564 34.582 36.91 34.65 36.885L59.664 26.205C59.4955 26.5191 59.3592 26.8495 59.257 27.191L43.377 34.567L59.046 28.114Z" fill="#8AA800"></path>
</svg></svg></g></g></svg></g><g id="dark-icon"><svg xmlns="http://www.w3.org/2000/svg" version="1.1" xmlns:xlink="http://www.w3.org/1999/xlink" xmlns:svgjs="http://svgjs.dev/svgjs" width="1000" height="1000"><g><g transform="matrix(15.625,0,0,15.625,0,0)"><svg xmlns="http://www.w3.org/2000/svg" version="1.1" xmlns:xlink="http://www.w3.org/1999/xlink" xmlns:svgjs="http://svgjs.dev/svgjs" width="64" height="64"><svg width="64" height="64" viewBox="0 0 64 64" fill="none" xmlns="http://www.w3.org/2000/svg">
<path d="M57.063 20.218L58.092 18.52C58.092 18.52 58.998 17.018 58.998 15.001C58.998 10.115 54.336 10.244 54.336 10.244L44.179 7.479L38.638 2L31.347 3.985L28.956 3.334L27.139 5.131L16.642 7.989C16.642 7.989 12.602 7.878 12.602 12.112C12.602 13.86 13.388 15.162 13.388 15.162L14.739 17.392L13.552 18.564L7.692 20.16C7.692 20.16 3.03 20.031 3.03 24.917C3.03932 26.0554 3.30561 27.1769 3.809 28.198L2 29.987L2.949 30.363C2.97 30.414 2.978 30.471 3.019 30.512C4.854 32.351 4.703 34.821 4.441 36.155L3.332 37.266L11.733 41.305L23.271 60.35C25.12 63.256 29.045 61.438 29.045 61.438L58.694 47.182L57.585 46.071C57.323 44.737 57.172 42.267 59.007 40.427C59.048 40.386 59.056 40.329 59.077 40.279L60.026 39.902L54.513 34.452L60.843 31.409L59.882 30.446C59.655 29.29 59.524 27.149 61.115 25.555C61.15 25.519 61.156 25.471 61.175 25.426L62 25.099L57.063 20.218ZM51.378 11.383L50.128 13.361L46.894 10.163L51.378 11.383ZM39.176 7.144L43.819 12.107L27.03 18.174L23.065 12.018L39.176 7.144ZM15.744 19.052L27.201 37.963L5.374 29.305L15.744 19.052ZM10.969 21.119L9.624 22.449L9.086 21.624L10.969 21.119ZM6.722 22.153L7.974 24.08L5.261 26.762C5.04779 26.17 4.93589 25.5462 4.93 24.917C4.93 23.091 5.836 22.396 6.722 22.153ZM5.154 37.026L5.169 36.968L30.316 47.975L5.366 36.081C5.389 35.946 5.407 35.797 5.426 35.647L24.959 43.827L5.494 34.711C5.4978 34.2944 5.46904 33.8781 5.408 33.466L23.487 40.911L5.165 32.4C5.04771 32.0059 4.89021 31.6249 4.695 31.263L29.578 41.888L30.144 42.822C31.311 44.656 33.428 44.317 34.495 43.999C35.97 44.727 38.614 46.411 37.937 48.892C37.58 50.204 36.795 50.84 35.538 50.84C34.265 50.84 32.994 50.174 32.981 50.165L5.154 37.026ZM30.2 50.185L28.234 50.999L26.564 48.436L30.2 50.185ZM22.586 55.566L14.857 42.807L22.539 46.5L26.172 52.092C24.707 52.718 23.07 54.147 22.586 55.566ZM56.619 43.382C56.558 43.7941 56.5292 44.2104 56.533 44.627L37.068 53.743L56.601 45.563C56.62 45.712 56.637 45.862 56.661 45.997L31.711 57.892L56.858 46.885L56.873 46.943L29.046 60.08C29.033 60.089 27.764 60.755 26.489 60.755C25.231 60.755 24.447 60.118 24.09 58.807C23.172 55.44 28.392 53.531 28.47 53.502L33.045 51.55C33.536 51.759 37.039 53.134 38.756 50.435L39.839 48.649L57.333 41.179C57.1374 41.5409 56.9796 41.9219 56.862 42.316L38.54 50.827L56.619 43.382ZM56.653 39.221L41.828 45.365L45.942 38.574L52.709 35.321L56.653 39.221ZM59.046 28.114C58.9932 28.4712 58.9681 28.8319 58.971 29.193L42.103 37.093L59.031 30.004C59.048 30.133 59.062 30.264 59.083 30.38L37.459 40.688L59.253 31.149L59.266 31.199L35.149 42.586C35.138 42.593 34.037 43.171 32.933 43.171C31.842 43.171 31.163 42.618 30.854 41.482C30.058 38.564 34.582 36.91 34.65 36.885L59.664 26.205C59.4955 26.5191 59.3592 26.8495 59.257 27.191L43.377 34.567L59.046 28.114Z" fill="#ECFF94"></path>
</svg></svg></g></g></svg></g></svg>